<svg width="16" height="16" viewBox="0 0 16 16" fill="none" xmlns="http://www.w3.org/2000/svg">
<path d="M11.3333 1.33334C10.9667 1.33334 10.6667 1.63334 10.6667 2.00001V2.66668H5.33333V2.00001C5.33333 1.63334 5.03333 1.33334 4.66667 1.33334C4.3 1.33334 4 1.63334 4 2.00001V2.66668H3.33333C2.59333 2.66668 2.00667 3.26668 2.00667 4.00001L2 13.3333C2 14.0667 2.59333 14.6667 3.33333 14.6667H12.6667C13.4 14.6667 14 14.0667 14 13.3333V4.00001C14 3.26668 13.4 2.66668 12.6667 2.66668H12V2.00001C12 1.63334 11.7 1.33334 11.3333 1.33334ZM12.6667 13.3333H3.33333V6.66668H12.6667V13.3333ZM7.33333 8.66668C7.33333 8.30001 7.63333 8.00001 8 8.00001C8.36667 8.00001 8.66667 8.30001 8.66667 8.66668C8.66667 9.03334 8.36667 9.33334 8 9.33334C7.63333 9.33334 7.33333 9.03334 7.33333 8.66668ZM4.66667 8.66668C4.66667 8.30001 4.96667 8.00001 5.33333 8.00001C5.7 8.00001 6 8.30001 6 8.66668C6 9.03334 5.7 9.33334 5.33333 9.33334C4.96667 9.33334 4.66667 9.03334 4.66667 8.66668ZM10 8.66668C10 8.30001 10.3 8.00001 10.6667 8.00001C11.0333 8.00001 11.3333 8.30001 11.3333 8.66668C11.3333 9.03334 11.0333 9.33334 10.6667 9.33334C10.3 9.33334 10 9.03334 10 8.66668ZM7.33333 11.3333C7.33333 10.9667 7.63333 10.6667 8 10.6667C8.36667 10.6667 8.66667 10.9667 8.66667 11.3333C8.66667 11.7 8.36667 12 8 12C7.63333 12 7.33333 11.7 7.33333 11.3333ZM4.66667 11.3333C4.66667 10.9667 4.96667 10.6667 5.33333 10.6667C5.7 10.6667 6 10.9667 6 11.3333C6 11.7 5.7 12 5.33333 12C4.96667 12 4.66667 11.7 4.66667 11.3333ZM10 11.3333C10 10.9667 10.3 10.6667 10.6667 10.6667C11.0333 10.6667 11.3333 10.9667 11.3333 11.3333C11.3333 11.7 11.0333 12 10.6667 12C10.3 12 10 11.7 10 11.3333Z" fill="#333F47"/>
</svg>
