<svg width="33" height="34" viewBox="0 0 33 34" fill="none" xmlns="http://www.w3.org/2000/svg">
<path opacity="0.5" d="M0.333008 20.4833C0.333008 14.4497 0.333008 11.4321 2.20821 9.55855C4.08181 7.68335 7.09941 7.68335 13.133 7.68335H19.533C25.5666 7.68335 28.5842 7.68335 30.4578 9.55855C32.333 11.4321 32.333 14.4497 32.333 20.4833C32.333 26.517 32.333 29.5345 30.4578 31.4081C28.5842 33.2833 25.5666 33.2833 19.533 33.2833H13.133C7.09941 33.2833 4.08181 33.2833 2.20821 31.4081C0.333008 29.5345 0.333008 26.517 0.333008 20.4833Z" fill="#08A94C"/>
<path d="M16.2498 0.0834961C14.8114 0.0834961 13.613 0.0834962 12.6626 0.211496C11.6578 0.345896 10.7506 0.643496 10.0226 1.3715C9.293 2.1011 8.9954 3.0083 8.861 4.0115C8.733 4.9635 8.733 6.1635 8.733 7.6003V7.6835H11.133C11.133 6.1411 11.1362 5.1043 11.2402 4.3315C11.3394 3.5939 11.5106 3.2771 11.7202 3.0691C11.9282 2.8611 12.2434 2.6899 12.981 2.5891C13.7538 2.4867 14.7906 2.4835 16.333 2.4835C17.8754 2.4835 18.9122 2.4867 19.685 2.5907C20.4226 2.6899 20.7394 2.8611 20.9474 3.0707C21.1554 3.2787 21.3266 3.5939 21.4274 4.3315C21.5298 5.1043 21.533 6.1411 21.533 7.6835H23.933V7.6003C23.933 6.1635 23.933 4.9635 23.805 4.0131C23.6706 3.0083 23.373 2.1011 22.6434 1.3731C21.9154 0.643496 21.0082 0.345896 20.0034 0.211496C19.053 0.0834962 17.853 0.0834961 16.4162 0.0834961H16.2498ZM13.133 22.0835H6.733C5.9794 22.0835 5.6018 22.0835 5.3666 22.3171C5.133 22.5523 5.133 22.9315 5.133 23.6835V25.2835C5.133 26.0371 5.133 26.4147 5.3666 26.6499C5.6018 26.8835 5.981 26.8835 6.733 26.8835H13.133C13.8866 26.8835 14.2642 26.8835 14.4994 26.6499C14.733 26.4147 14.733 26.0355 14.733 25.2835V23.6835C14.733 22.9299 14.733 22.5523 14.4994 22.3171C14.2642 22.0835 13.885 22.0835 13.133 22.0835Z" fill="#08A94C"/>
<path d="M5.53333 32.9588C6.23573 33.0852 7.02933 33.162 7.93333 33.2084V26.8836H6.73333C6.13493 26.8836 5.77333 26.8836 5.53333 26.7668V32.9588ZM5.53333 22.2004V8.00842C6.23573 7.88202 7.02933 7.80522 7.93333 7.75882V22.0836H6.73333C6.13493 22.0836 5.77333 22.0836 5.53333 22.2004ZM24.7333 33.2084C25.5377 33.1746 26.3392 33.0912 27.1333 32.9588V8.00842C26.3392 7.87594 25.5377 7.79258 24.7333 7.75882V33.2084Z" fill="#08A94C"/>
</svg>
