<svg width="28" height="28" viewBox="0 0 28 28" fill="none" xmlns="http://www.w3.org/2000/svg">
<path d="M7.53002 0.666656C8.08735 0.666656 8.53802 1.07999 8.53802 1.58932V3.45332C9.43135 3.43732 10.434 3.43732 11.562 3.43732H16.938C18.066 3.43732 19.0674 3.43732 19.962 3.45332V1.58932C19.962 1.07999 20.4127 0.666656 20.97 0.666656C21.5274 0.666656 21.978 1.07999 21.978 1.58932V3.53332C23.9114 3.67466 25.182 4.02399 26.1154 4.87732C27.0487 5.73199 27.4287 6.89466 27.5834 8.66666V9.99999H0.916687V8.66666C1.07135 6.89466 1.45135 5.73332 2.38469 4.87732C3.31802 4.02399 4.58735 3.67466 6.52202 3.53332V1.58932C6.52202 1.07999 6.97402 0.666656 7.53002 0.666656Z" fill="white"/>
<path opacity="0.5" d="M27.5834 16.6667V14C27.5834 12.8813 27.566 10.8867 27.5487 10H0.924696C0.907363 10.8867 0.924696 12.8813 0.924696 14V16.6667C0.924696 21.6947 0.924696 24.2093 2.4847 25.7707C4.0487 27.3333 6.56203 27.3333 11.5887 27.3333H16.922C21.9487 27.3333 24.4607 27.3333 26.0234 25.7707C27.5834 24.2093 27.5834 21.6947 27.5834 16.6667Z" fill="white"/>
<path fill-rule="evenodd" clip-rule="evenodd" d="M19.5834 15.6667C19.8486 15.6667 20.1029 15.772 20.2905 15.9596C20.478 16.1471 20.5834 16.4014 20.5834 16.6667V18.3333H22.25C22.5152 18.3333 22.7696 18.4387 22.9571 18.6262C23.1447 18.8138 23.25 19.0681 23.25 19.3333C23.25 19.5985 23.1447 19.8529 22.9571 20.0404C22.7696 20.228 22.5152 20.3333 22.25 20.3333H20.5834V22C20.5834 22.2652 20.478 22.5196 20.2905 22.7071C20.1029 22.8946 19.8486 23 19.5834 23C19.3181 23 19.0638 22.8946 18.8762 22.7071C18.6887 22.5196 18.5834 22.2652 18.5834 22V20.3333H16.9167C16.6515 20.3333 16.3971 20.228 16.2096 20.0404C16.022 19.8529 15.9167 19.5985 15.9167 19.3333C15.9167 19.0681 16.022 18.8138 16.2096 18.6262C16.3971 18.4387 16.6515 18.3333 16.9167 18.3333H18.5834V16.6667C18.5834 16.4014 18.6887 16.1471 18.8762 15.9596C19.0638 15.772 19.3181 15.6667 19.5834 15.6667Z" fill="white"/>
</svg>
