<svg width="14" height="14" viewBox="0 0 14 14" fill="none" xmlns="http://www.w3.org/2000/svg">
<path d="M7.00001 0.333313C3.32001 0.333313 0.333344 3.31998 0.333344 6.99998C0.333344 10.68 3.32001 13.6666 7.00001 13.6666C10.68 13.6666 13.6667 10.68 13.6667 6.99998C13.6667 3.31998 10.68 0.333313 7.00001 0.333313ZM7.00001 10.3333C6.63334 10.3333 6.33334 10.0333 6.33334 9.66665V6.99998C6.33334 6.63331 6.63334 6.33331 7.00001 6.33331C7.36668 6.33331 7.66668 6.63331 7.66668 6.99998V9.66665C7.66668 10.0333 7.36668 10.3333 7.00001 10.3333ZM7.66668 4.99998H6.33334V3.66665H7.66668V4.99998Z" fill="#047CDD"/>
</svg>
