<svg xmlns="http://www.w3.org/2000/svg" enable-background="new 0 0 50 50" viewBox="0 0 50 50" id="communication">
  <path fill="#D6CE83" d="M45.5,5.5V5.3c-0.4-0.8-2-1.3-4.8-1.5c-3.2,0.4-6.1,0.7-8.8,0.9c-0.2-0.3-0.4-0.5-0.8-0.7
		c-0.6-0.2-1-0.2-1.1-0.2l-0.8-0.1c-0.2,0-0.3-0.1-0.5-0.1h-0.4c-0.4,0-0.5,0-0.5,0c-0.1,0-0.2,0-0.5,0c-0.1,0-0.4,0-0.9-0.1
		c-0.2,0-0.4,0.1-0.6,0.1c-0.3,0-0.7,0-1.2,0.1l-0.8,0.1L23,3.6l-1.1-0.2l-0.2-0.1h-0.1c0,0,0,0-0.1,0c-0.1,0-0.2,0-0.2-0.1
		c-0.1,0-0.1,0-0.2,0C20.9,3.1,20.8,3,20.8,3l-1-0.2l-1.1-0.3l-0.5-0.2c-0.2-0.1-0.3-0.1-0.5-0.2l-1.1-0.4l-0.7-0.2L15,1.4
		c-0.2,0-0.3,0-0.5-0.1c-0.3-0.1-0.5-0.1-0.5-0.1h-0.2c-0.1,0-0.1,0,0,0h-0.2c-0.1,0-0.2,0-0.2,0h-0.2h-0.4c-0.1,0-0.2,0-0.2,0
		c-0.3,0-0.5-0.1-0.5-0.1c0,0-0.2,0-0.6,0c-0.2,0-0.4,0-0.6,0c-0.3,0-0.5-0.1-0.8-0.1H9.2h0.1c-0.2,0-0.3-0.1-0.5-0.1l0,0
		c-0.2,0-0.2,0-0.4,0L8.1,1C4.8,2,3,3.9,2.8,6.6c-0.5,6-0.5,10.3-0.2,13v0.1c-0.2,1.3,0.3,2.6,1.5,3.9c1.2-0.4,3,0.5,5.2,2.5
		c-0.2,0.2-0.2,0.5-0.2,0.8c0,0.1,0.2,0.5,0.5,1.1c0,0.1,0.1,0.2,0.2,0.3c0,0.1,0.1,0.2,0.2,0.4c0,0.1,0.1,0.2,0.2,0.3l0.9,1.3
		c0.2,0.2,0.2,0.3,0.3,0.3c0.1,0.1,0.5,0.4,1.1,0.8l1.1,0.6c0.2,0.2,0.5,0.2,1,0.2c0.5,0,0.9-0.2,1.2-0.5c0.3-0.4,0.5-0.8,0.4-1.2
		l0,0c0-0.1,0.1-0.2,0.1-0.2s0-0.2,0-0.3l-0.1-0.5c0,0-0.1-0.4-0.2-1.1c0-0.2-0.1-0.2-0.1-0.3l-0.3-0.8l-0.1-0.3
		c0-0.5,0-0.9-0.1-1.2c0.1-0.1,0.2-0.3,0.2-0.5l0.1-0.2c0.2-0.1,0.2-0.2,0.5-0.3c0.2,0,0.5,0,0.8-0.1c0.1,0,0.2-0.1,0.2-0.1
		c0.4,0.5,1.4,0.8,3,0.9c0.2-0.2,0.4-0.2,0.5-0.4c0.1,0.2,0.2,0.5,0.3,0.7c1.1-3.4,2.5-5.5,4.4-6c0.5,0,1.1-0.1,1.6-0.1
		c1.5,0.2,3.2,1.1,5.1,2.7c-1.8,1.5,1,2.6,8.5,3.2c0.6-0.2,1.1-0.4,1.5-0.5c0.2,0.3,0.8,0.4,1.7,0.1l0.5-0.1
		C47.5,14.1,47.8,7.7,45.5,5.5z M25,16c-0.1,0-0.1,0.1-0.2,0.1c-0.1,0-0.2-0.1-0.2-0.1c-0.1-0.1-0.3-0.1-0.6-0.1h-0.2h-0.2
		c0.1,0,0.1,0,0,0h-0.2h-0.3h-0.9c-0.3,0-0.5-0.1-0.6-0.2l-0.1-0.1c0-0.1-0.1-0.2-0.1-0.4l-0.1-0.8c0-0.2,0-0.3,0.1-0.5v-0.9
		l0.2-0.6l0.2-0.3c0-0.1,0.1-0.2,0.3-0.5c0.1-0.2,0.2-0.4,0.3-0.6l0.2-0.4H23h0.2c-0.1,0-0.1,0,0,0s0.1,0,0.2,0h0.2h0.2
		c0.1,0,0.2-0.1,0.4-0.1c0.1,0,0.2-0.1,0.4-0.2c0.1,0,0.2-0.1,0.2-0.1h0.1c0.1,0,0.2,0,0.3,0s0.2,0,0.3-0.1l0,0l0.1,0.1
		c0.1,0.1,0.2,0.2,0.3,0.2l0.2,0.2l0.1,0.4c0,0.2,0.1,0.3,0.1,0.5l0.1,1.4l0,0C25.5,14.3,25.1,15.2,25,16z M31.1,13.7
		c0.1-0.1,0.2-0.2,0.2-0.2c0.1-0.1,0.1-0.2,0.2-0.4c0-0.2,0.1-0.2,0.1-0.4l0.2-1.1l0.2-0.4c0.1-0.1,0.2-0.2,0.2-0.4l0.1-0.1l0.3-0.2
		l0.5-0.1h0.8c0.4,0,0.6-0.1,0.8-0.2c0.2-0.1,0.2-0.2,0.4-0.2c0.5,0.6,1.1,1.5,1.7,2.7c-0.3,0.6-0.7,1.4-1.1,2.3
		c-0.8,0.2-1.9,0.4-3.2,0.8C32.7,15,32.3,14.2,31.1,13.7z M16.4,16.1c-0.1,0-0.1,0-0.2,0l-0.6-0.2l-0.4-0.2c0.1-0.2,0-0.4,0-0.6
		c-0.1-0.2-0.2-0.4-0.3-0.5c-0.1-0.1-0.2-0.2-0.2-0.2c-0.1-0.1-0.2-0.1-0.4-0.2l-0.1,0.1c-0.1-0.1-0.1-0.2-0.2-0.2L14,13.9l-0.4-1.4
		c0-0.2-0.1-0.5-0.1-0.5c0.1-0.2,0.1-0.5,0-0.8c0-0.2-0.1-0.4-0.2-0.6c0-0.1,0.1-0.2,0.1-0.3c0.1-0.1,0.2-0.2,0.2-0.4l0.4-0.1
		c0.4,0,0.6-0.1,0.7-0.1c0.1,0,0.2,0,0.3,0c0.1,0,0.2,0,0.4,0c0.1,0.1,0.2,0.1,0.3,0.1l0.3,0.2l0.6,0.5c0.2,0.9,0.5,2,0.9,3.2
		C17.3,14.5,16.8,15.3,16.4,16.1z M15.5,9.8C15.6,9.8,15.6,9.8,15.5,9.8L15.5,9.8z M16.2,9.9L16.2,9.9C16.3,10,16.2,10,16.2,9.9
		L16.2,9.9z M21.4,15.8h0.2l0,0H21.4L21.4,15.8z M24.2,16L24.2,16L24.2,16L24.2,16L24.2,16L24.2,16L24.2,16C24.5,16,24.5,16,24.2,16
		L24.2,16z M13.3,3.7L14,3.6c0.2,0.1,0.5,0.1,0.7,0.1l0.9,0.2C15.8,4,16,4.1,16.1,4.1l1,0.4l0.3,0.1C17.8,4.7,18,4.8,18,4.8h0.1
		c0.2,0,0.2,0,0.1,0h0.1l0.4,0.1c-2.3-0.1-4.2-0.4-5.8-0.8C13.1,3.9,13.2,3.8,13.3,3.7z M12.3,31.1L12.3,31.1
		C12.5,31.1,12.5,31.1,12.3,31.1z M12.7,31.3L12.7,31.3C12.7,31.4,12.7,31.4,12.7,31.3z M14.4,32.1L14.4,32.1
		C14.5,32.1,14.5,32.1,14.4,32.1z M16.2,28.8L16.2,28.8L16.2,28.8z M16.6,24.4L16.6,24.4C16.7,24.4,16.7,24.4,16.6,24.4z M16.7,24.4
		L16.7,24.4C16.8,24.4,16.8,24.4,16.7,24.4z"></path>
  <path fill="#4D708E" d="M24.9 26.8c-.1 0-.2 0-.2.1 0 0-.1.8-.5 1.4-.4.5-.8 1.1-.9 1.4s-.3.5-.2.8c0 .1.1.1.1.2l0 0c.2-.1.2-.2.4-.5.2-.3.3-.6.6-1.1.3-.5.8-1.1 1.2-1.4C26 27.3 25.3 26.8 24.9 26.8zM23.5 25.3c-.1 0-.1 0-.2.1 0 0 .2.7-.2 1.1-.2.4-.5.8-.6 1.1-.2.3-.4.7-.5 1-.2.3-.2.5-.2.8.1.1.1.2.1.2s0 0 0-.1c.2-.1.3-.3.4-.5.1-.2.2-.5.4-.8.2-.3.4-.7.5-1.1.2-.4.5-.8.9-1C24.5 25.8 23.8 25.3 23.5 25.3zM23.7 22.4C23.6 22.4 23.6 22.4 23.7 22.4c-.1 0-.1.7-.4 1.1s-.5.7-.7 1c-.2.3-.4.5-.5.8-.2.3-.3.5-.3.8 0 .2 0 .2 0 .2s0 0 0-.1c.2-.1.4-.2.5-.5s.3-.5.5-.8c.2-.3.4-.5.6-.9.2-.3.5-.7 1-.9C24.7 23 24 22.4 23.7 22.4zM27.3 27.6c-.1 0-.1 0-.2.1 0 0 .1.8-.2 1.2-.3.5-.7 1-.9 1.4-.3.5-.5.8-.5 1.2 0 .2 0 .3 0 .3l0 0c0 0 0 0 0-.1.2-.1.5-.4.7-.8.2-.4.5-.8.8-1.4.3-.5.7-1 1.1-1.3C28.3 28 27.6 27.6 27.3 27.6zM29.1 28.4c-.1 0-.2 0-.2.1 0 0 .1.8-.2 1.4-.3.5-.5 1.1-.8 1.4-.2.4-.4.5-.4.8 0 .2 0 .2 0 .2s0 0 0-.1c.2 0 .4-.2.6-.5.2-.3.4-.7.7-1.1.2-.5.6-1.1 1-1.5C30.2 28.8 29.5 28.4 29.1 28.4zM25.2 28.6c-.1 0-.1 0-.2.1 0 0 .1.7-.2 1.1s-.5.8-.5 1.1c-.2.3-.2.5-.2.8.1.2.1.2.1.2s0 0 0-.1c.2-.1.3-.4.4-.6.1-.2.2-.5.4-.8.2-.4.5-.8.9-1.1C26.2 29.2 25.5 28.6 25.2 28.6zM15 12.3L15 12.3c0 0 .2.4.1.7-.1.3-.2.5-.3.8-.2.3-.2.5-.4.8s-.2.4 0 .5c.1.1.1.1.1.1l0 0c.2 0 .2-.2.3-.3.1-.2.2-.3.2-.6.1-.3.2-.6.4-.8.1-.2.2-.5.5-.5C16.1 12.9 15.2 12.3 15 12.3z"></path>
  <path fill="#4D708E" d="M14.1 11.7L14.1 11.7c0 0 .3.3.2.5s-.2.5-.3.7c-.1.2-.2.4-.2.6 0 .2-.1.4-.1.5 0 .2 0 .2.2.3l0 0c.1 0 .1 0 .1 0l0 0c.2-.2.2-.2.2-.2 0-.1 0-.2 0-.3s.1-.3.1-.5c.1-.2.2-.4.3-.6.1-.2.2-.4.4-.4C15.2 12 14.2 11.7 14.1 11.7zM14 10C13.9 10 13.9 10 14 10c0 0 .2.5 0 .7-.2.2-.2.4-.4.5-.2.2-.2.3-.3.4-.1.1-.1.2 0 .3.1.1.1.1.1.1l0 0c.2 0 .2-.1.3-.2.1-.1.1-.2.2-.3s.2-.3.3-.5c.2-.2.2-.4.5-.4l0 0 0 0C15 10.8 14.2 10 14 10zM16.2 12.6C16.1 12.6 16.1 12.6 16.2 12.6c-.1 0 .2.5.1.8-.2.3-.2.6-.4.9-.2.3-.2.5-.3.7-.1.2-.2.4-.2.5s-.1.2 0 .3c.1.1.1.1.1.1l0 0c.2 0 .2-.1.2-.2s.1-.2.2-.4.2-.4.2-.7c.1-.2.2-.5.3-.8.2-.3.2-.6.5-.8C17.3 13 16.5 12.6 16.2 12.6zM22.3 13.5L22.3 13.5c0 0 .2.4.2.5-.1.2-.2.4-.3.5-.1.2-.2.4-.3.6-.1.2-.1.4 0 .5s.1.1.1.1l0 0c.2 0 .2-.2.3-.2 0-.1.1-.3.2-.5.1-.2.2-.4.2-.5.1-.2.2-.3.4-.3l0 0 0 0C23.4 14.1 22.5 13.5 22.3 13.5z"></path>
  <path fill="#4D708E" d="M22.5 11.1L22.5 11.1c0 0 .2.4.2.5-.1.2-.2.3-.2.5-.1.2-.2.4-.3.6-.1.2-.2.4-.3.6-.2.2-.2.5-.3.6-.1.2-.2.3 0 .4.1.1.1.1.1.1l0 0h.1c.2 0 .2-.1.2-.2.1-.2.2-.3.2-.5.1-.2.2-.4.3-.6.2-.2.2-.5.4-.7.1-.2.2-.3.2-.5.1-.2.2-.3.4-.3C23.6 11.7 22.7 11.1 22.5 11.1zM24.1 12.4L24.1 12.4c0 0 .2.5.1.7-.2.2-.2.5-.3.7-.1.2-.2.4-.3.6-.1.2-.2.4-.3.6-.1.2-.2.3-.1.5.1.1.1.1.1.1l0 0c.1 0 .1 0 .2 0s.2-.1.2-.2c.1-.2.2-.4.2-.6s.2-.4.3-.6c.1-.2.2-.4.3-.6s.2-.4.5-.5C25.2 13.1 24.2 12.4 24.1 12.4z"></path>
  <path fill="#4D708E" d="M24.5 13.4C24.4 13.4 24.4 13.4 24.5 13.4c-.1 0 .2.5 0 .8s-.3.5-.4.5-.1.1 0 .2c.1.1.1.1.1.1l0 0c.2.1.2.1.2.1 0 0 0 0 .1-.1s.2-.2.2-.4c.2-.2.3-.6.6-.8C25.6 13.9 24.8 13.4 24.5 13.4zM32.7 13.4C32.7 13.4 32.7 13.4 32.7 13.4c0 0 .2.5.1.6-.1.2-.2.4-.3.5s-.2.4-.3.5c-.1.2-.2.2-.1.4.1.1.1.1.1.1l0 0c.1 0 .1 0 .2 0 .2 0 .2-.1.2-.2.1-.2.2-.3.2-.5.1-.2.2-.4.3-.5.1-.2.2-.4.5-.4C33.7 14 32.9 13.4 32.7 13.4z"></path>
  <path fill="#4D708E" d="M32.1,12.3L32.1,12.3c0,0,0.2,0.4,0.2,0.5c-0.1,0.2-0.2,0.4-0.2,0.5s-0.2,0.4-0.2,0.5
		c-0.1,0.2-0.2,0.3-0.2,0.5c0,0.2-0.1,0.2,0.1,0.2c0.1,0.1,0.1,0.1,0.1,0.1l0,0c0.2,0,0.2,0,0.2-0.2c0-0.1,0-0.2,0.1-0.3
		c0.1-0.2,0.2-0.3,0.2-0.5c0.1-0.2,0.2-0.4,0.2-0.5c0.1-0.2,0.2-0.3,0.4-0.3C33.3,12.8,32.3,12.3,32.1,12.3z"></path>
  <path fill="#4D708E" d="M32 11L32 11c0 0 .2.4.1.6-.1.2-.2.4-.3.5-.1.2-.2.3-.3.5-.1.2-.2.4-.2.5 0 .2-.1.2.1.2.1.1.1.1.1.1l0 0c.2 0 .2 0 .2-.1 0-.1 0-.2.1-.4.1-.2.2-.3.2-.5s.2-.3.3-.5c.2-.2.2-.3.5-.4C33.1 11.6 32.2 11 32 11zM33.9 13L33.9 13c0 0 .2.4.2.6-.1.2-.2.4-.3.5-.1.2-.2.4-.3.6-.1.2-.2.4-.2.6-.1.2-.2.3-.2.4s-.1.2 0 .2c.1.1.1.1.1.1l0 0c.1 0 .2.1.2.1.1 0 .1 0 .1-.1 0-.1.1-.2.2-.3.1-.2.2-.4.2-.5.1-.2.2-.4.3-.6.1-.2.2-.4.3-.5.1-.2.2-.4.5-.4l0 0 0 0C35 13.6 34.1 13 33.9 13zM22.9 43.9L22.9 43.9c0 0 0 .5-.2.7s-.3.3-.5.5c-.2.2-.5.5-.6.8-.2.2-.3.4-.5.7-.2.2-.4.5-.5.7s-.2.3-.2.5c.1.1.1.2.1.2l0 0h.1c.2 0 .2-.1.3-.2.1-.2.2-.3.4-.6.2-.3.3-.5.5-.7.2-.2.3-.5.5-.7.2-.3.4-.4.5-.5s.3-.3.5-.3c0 0 0 0 .1 0l0 0C23.8 44.7 23 43.9 22.9 43.9zM21 43L21 43c0 0 .2.4.1.7s-.3.5-.5.7c-.2.2-.2.4-.4.6-.2.2-.2.4-.2.5.1.1.1.2.1.2l0 0c.2 0 .2-.1.3-.2s.2-.4.3-.5c.2-.2.2-.5.4-.7.2-.2.3-.5.6-.5C22.1 43.6 21.2 43 21 43zM25.2 43.6L25.2 43.6c0 0 .2.4-.1.6-.2.2-.5.6-.6.9s-.3.5-.5.8c-.2.2-.3.5-.5.7-.2.2-.2.4-.2.5.1.1.1.2.1.2l0 0h.1c.2 0 .2-.1.2-.2.1-.2.2-.3.4-.6.2-.3.3-.5.5-.8.2-.2.3-.6.6-.9.2-.2.3-.4.5-.4.1 0 .1 0 .2 0l0 0C26.1 44.5 25.3 43.6 25.2 43.6zM27.5 44.2C27.4 44.2 27.4 44.2 27.5 44.2c-.1 0 .1.6-.2.9-.2.4-.4.7-.7 1.1-.3.3-.5.5-.6.7s-.3.3-.5.5c-.2.1-.2.2-.2.3.1.1 0 .2 0 .2l0 0c.1.1.2.1.2.1.1 0 .2-.1.2-.1.1-.1.2-.2.4-.4.2-.2.3-.4.5-.6.2-.3.5-.6.8-1s.5-.7.8-.8C28.5 44.8 27.7 44.2 27.5 44.2zM29.5 45c-.1 0-.1 0-.2.1 0 0-.1.8-.2 1.1s-.4.5-.5.8-.3.5-.5.5c-.1.1-.2.2-.2.4C28 47.9 28 48 28 48l0 0c.1 0 .2.1.2.1.1 0 .2-.1.2-.2.1-.1.2-.2.4-.5s.3-.5.5-.8c.2-.3.4-.5.8-.8C30.5 45.7 29.8 45 29.5 45zM33.7 45.5C33.6 45.5 33.6 45.5 33.7 45.5c-.1 0 .1.6-.2.9S33.2 47 33 47.2s-.3.5-.5.7c-.1.2-.2.3-.1.5.1.1.1.1.1.1l0 0c.2 0 .2-.1.3-.2.1-.2.1-.3.2-.5s.3-.5.5-.8c.2-.3.4-.6.8-.7C34.7 46.1 33.9 45.5 33.7 45.5z"></path>
  <path fill="#4D708E" d="M33.6 43.5L33.6 43.5c0 0 .2.4.2.5s-.2.4-.4.7c-.2.2-.3.5-.4.6s-.2.3-.3.4c-.1.2-.2.2-.2.4-.1.1-.1.2 0 .3.1.1.1.1.1.1l0 0c.1 0 .1 0 .2 0 .2 0 .2-.1.2-.2 0-.1.1-.2.2-.2.1-.1.2-.2.3-.4.1-.2.2-.4.4-.5.2-.2.3-.5.5-.7.2-.2.2-.4.5-.4C34.7 44 33.8 43.5 33.6 43.5zM33.5 41.7C33.4 41.7 33.4 41.7 33.5 41.7c-.1 0 .1.6-.1.8-.2.2-.2.4-.4.5-.1.2-.2.3-.4.4-.1.1-.2.2-.2.3.1.1.1.2.1.2l0 0c.1 0 .2.1.2.1.1 0 .1-.1.2-.1.1-.1.2-.2.3-.3.2-.2.2-.3.4-.5s.3-.4.6-.5C34.5 42.3 33.7 41.7 33.5 41.7zM35.9 44.5C35.8 44.5 35.8 44.5 35.9 44.5c-.1.1.1.7-.1 1-.2.4-.4.7-.5 1-.2.3-.3.5-.5.7-.2.2-.2.3-.3.5-.1.2-.2.2-.1.4.1.1.1.2.1.2l0 0c.1 0 .1.1.2.1.1 0 .2-.1.2-.2.1-.2.2-.3.2-.4.1-.2.2-.3.4-.6.2-.3.3-.6.5-.9s.4-.7.8-.9C37 44.9 36.2 44.5 35.9 44.5zM5.4 20.5C5.4 20.5 5.3 20.5 5.4 20.5c-.1 0 .1.5-.1.8C5.2 21.5 5 21.7 4.8 22c-.2.2-.3.3-.4.5s-.2.3-.2.5c-.1.2-.1.3 0 .4s.1.1.1.1l0 0c.2 0 .2-.1.2-.2 0-.1.1-.2.2-.3.1-.2.2-.2.3-.5.2-.2.3-.4.5-.7.2-.2.4-.5.7-.6C6.4 21.1 5.6 20.5 5.4 20.5zM5.5 18C5.5 18 5.5 18 5.5 18c0 0 0 .5-.3.9-.3.3-.5.7-.8 1.1-.2.4-.5.7-.7.9-.2.2-.3.5-.5.6C3.2 21.6 3 21.8 3 22 3 22.1 3 22.2 3 22.3 3 22.4 3 22.4 3 22.4l0 0h.1c.2 0 .2-.1.2-.2.1-.2.1-.2.2-.5.1-.2.2-.4.4-.6.2-.2.3-.5.5-.8.2-.3.5-.7.8-1.1.3-.3.5-.6.9-.7C6.4 18.7 5.7 18 5.5 18zM4.8 15.5C4.8 15.5 4.7 15.6 4.8 15.5c-.1 0 .1.5-.2.9-.2.3-.5.6-.7.9-.2.3-.5.6-.6.9-.2.3-.4.6-.5.8-.2.2-.3.5-.3.6-.1.2-.1.2 0 .4.1.1.1.2.1.2l0 0c.2 0 .2-.1.3-.2C3 19.9 3 19.8 3.1 19.6c.2-.2.3-.5.5-.8.2-.3.4-.6.5-.9.2-.3.5-.6.7-.9.2-.3.5-.6.8-.7C5.8 16.2 5 15.5 4.8 15.5zM4.5 13.4L4.5 13.4c-.1 0 0 .6-.3 1s-.6.7-.8 1.1c-.2.3-.5.7-.6.9-.2.3-.3.5-.4.8s-.2.5-.1.6c.1.1.1.2.1.2l0 0c.2 0 .2-.2.3-.4.1-.2.2-.4.2-.6.2-.2.3-.5.5-.9.2-.3.5-.6.8-1s.6-.7.9-.8C5.6 14.1 4.8 13.4 4.5 13.4zM3.9 11.3L3.9 11.3c-.1 0-.2.7-.4 1.1C3.3 12.7 3.1 13 3 13.3c-.2.2-.2.5-.4.7-.1.2-.2.3-.1.5.2 0 .2 0 .2 0l0 0C3 14.4 3 14.3 3 14.2c0-.1.2-.3.2-.5.1-.2.2-.5.5-.8.2-.3.4-.6.8-.7C4.8 12 4.2 11.3 3.9 11.3zM4.2 8.3C4.1 8.3 4.1 8.3 4.2 8.3 4.1 8.3 4.2 8.9 4 9.2c-.2.3-.5.7-.5.8-.2.2-.2.4-.4.6C3 10.8 2.9 11 2.8 11.1c-.1.1-.1.2 0 .2.1.1.1.1.1.1C3 11.4 3 11.4 3 11.4c.1 0 .1 0 .2 0 0 0 0 0 .1 0 .1-.1.1-.2.2-.3s.2-.4.4-.6c.2-.2.2-.4.5-.7C4.5 9.5 4.7 9.1 5 8.9 5.2 8.9 4.4 8.3 4.2 8.3zM3 11.4L3 11.4 3 11.4 3 11.4zM7.4 20L7.4 20c0 0 .2.5.1.6-.2.2-.3.4-.4.6C7 21.4 6.8 21.7 6.7 22c-.2.3-.4.7-.6 1s-.4.5-.4.8c0 .2 0 .2 0 .2l0 0 0 0c.2 0 .3-.2.5-.5.2-.3.4-.6.5-1S7 22 7.2 21.7c.2-.2.3-.5.5-.7.2-.2.3-.4.5-.4C8.5 20.6 7.6 20 7.4 20zM8.6 21.7L8.6 21.7c-.1 0 .1.6-.2.9-.2.3-.4.6-.5.8-.2.2-.3.4-.5.5-.2.2-.2.2-.2.4.1.1 0 .2 0 .2l0 0c.1 0 .2.1.2.1.1 0 .2-.1.2-.2.1-.1.2-.2.4-.4.2-.2.4-.5.5-.8C8.9 23 9 22.7 9.4 22.5 9.7 22.2 8.9 21.7 8.6 21.7zM9.9 23C9.8 23 9.8 23 9.9 23c-.1 0 .2.5 0 .8-.2.4-.4.7-.5 1-.2.2-.3.5-.4.6s-.2.2-.1.4C9 25.9 9 26 9 26l0 0c.1 0 .1 0 .2 0 .1 0 .2-.1.2-.2.1-.2.2-.3.3-.5.1-.2.3-.5.5-.9.2-.4.4-.7.7-.8C11 23.6 10.2 23 9.9 23zM11.7 24.8C11.6 24.8 11.6 24.8 11.7 24.8c-.1 0 .2.5 0 .8-.2.3-.2.5-.4.8s-.2.5-.4.7c-.1.2-.2.5-.3.7-.1.2-.2.4-.1.5.1.1.1.2.1.2l0 0c0 0 0 0 .1 0 .2 0 .2-.2.3-.3.1-.2.2-.4.2-.6s.2-.4.3-.6.3-.5.4-.8.3-.5.6-.7C12.7 25.2 11.9 24.8 11.7 24.8zM13.2 26.8C13.1 26.8 13.1 26.9 13.2 26.8c-.1 0 .2.5 0 .8-.2.3-.3.6-.5.9s-.3.6-.5.8c-.2.2-.2.5-.2.6.1.1.1.2.1.2l0 0c0 0 0 0 .1 0 .2 0 .2-.2.3-.4s.2-.5.4-.8c.2-.3.3-.6.5-.9.2-.3.3-.6.6-.8C14.2 27.3 13.4 26.8 13.2 26.8zM14.8 27.9C14.7 27.9 14.7 27.9 14.8 27.9c-.1 0 .2.5-.1.9s-.4.8-.5 1.1c-.2.3-.3.5-.5.8s-.2.4-.3.5-.2.2-.1.4c.1.1.1.2.1.2l0 0c.1 0 .1 0 .2 0 .2 0 .2-.1.2-.2.1-.1.2-.2.2-.4.1-.2.2-.5.4-.8.2-.3.3-.6.5-1.1.2-.5.4-.8.8-1C15.9 28.3 15.1 27.9 14.8 27.9zM27 19.5l1.3.1 1.1.5.8.9.6 1.1.5 1.1.2 1.3v1.4L31.4 27l-.3 1.3.2-.7L31 27.9l-.4 1.1L30 30l-.7 1-.8.6-1 .4L26.4 32l-1.1-.3-1.1-.7-.9-.6-.8-.8L22 28.6 22 27.6l.1-1.2.2-1.3.3-1.1.5-1.8 0 0 .7-.9 1-.8 1.1-.5L27 19.5zM27.4 18.8L26 18.9l-1.4.5-.8.8v-.3l-.5.4L22.7 21 22 22l-.5 1.4L21 24.8l-.2 1.7L20.7 28l.5 1.7.8 1.1 1.1 1.1 1.1.7 1.4.7 1.5.2 1.4-.4 1.3-.8.6-.9.7-1.2.6-1.2.3-1.3.3-1.4.1-1.4v-1.4L32 22.3l-.6-1.2-.8-1.4-.1.2-.2-.2-1.4-.8L27.4 18.8z"></path>
  <path fill="#4D708E" d="M33.9,34.2h-1.4l-1.3,0.1l-0.8,0.2H29h-1.3l-1.4-0.1L25,34.7l-1.2,0.1l-1.4,0.2l-1.1,0.2l-1.5,0.2L18,36.2
		l1.6-0.5l-1.4,0.6l-1,0.9l-0.8,1.2l-0.7,1.1l-0.5,1.4l-0.2,1.4l-0.1,1.3V45l0.2,1.3l0.2,1.7l0.3,0.6l0.1-1.4V46l-0.2-1.4l0.1-1.4
		l0.1-1.4l0.4-1.2l0.6-1.1l0.7-1.1l0.8-1l1-0.8l1.2-0.4l1.2-0.2l1.3-0.3l1.3-0.2l1.3-0.2l1.3-0.2l0.8,0.2l-0.9,0.2l1.2,0.1l1.3,0.1
		l1.3,0.1h1.4l1.4-0.1h1.1L35,36l0.8,0.7l0.5,0.9l0.5,1.1l0.4,1.2l0.1,1.2l0.2,1.3v1.2L37,45.4l-0.8,1l-1.1,0.2l0.1,0.3l0.8,0.2
		l1.2-0.2l1-1.3l0.5-1.4l0.2-1.7l-0.1-1.6l-0.2-1.6l-0.6-1.4l-0.5-1.3l-0.8-1.2l-1.2-0.9L33.9,34.2z"></path>
  <path fill="#4D708E" d="M5.2,46.1l-1.6,0.1l0.8,0.3l1.1,0.2l1.3,0.1L8.2,47L9.5,47l1.3,0.1h1.3l1.3,0.1l1.3,0.2l1.3,0.2l1.3,0.1
		l1.3,0.1l1.3,0.2l1.4,0.2h1.2l1.2,0.2h-1.4l1.4,0.2l1.3,0.1l1.3,0.1l1.2,0.2l1.3,0.2l1.4,0.1l1.3,0.1h1.4l1.3-0.1l1.2-0.2h1.2h1.4
		h1.3h0.7H42l1.5-0.2l0.5-0.2L43.3,48l-1.1-0.2l-1.1-0.2l-1.4-0.2h-1.5h-1.4L35,47.6l-1.2,0.2l-1.3,0.1h-1.2L30,47.7l-1.3-0.1
		l-1.3-0.2l-0.9-0.1h-1.4h-1.3l-1.3-0.2l-1.3-0.1L20.1,47l-1.3-0.3l-1.4-0.1l-1.3-0.1l-0.1,0.2h-0.4l-1.3-0.1L13,46.5h-1.4h-1.3
		l-1.3-0.1l-1.3-0.1l-1.3-0.2L5.2,46.1z"></path>
  <path fill="#4D708E" d="M20.5 41.9l-.6 1.4.1 1.3.2 1.1L20 47l.8-.8-.1-1.3.5-.9v-1.1L20.5 41.9zM33 41.4L32 41.7l0 1.4-.2 1.3v1.2l.1 1-.1 1.2v1.4l.7-1.2.2-1.3-.1-1.3.5-.8.2-1.3-.1-1.2L33 41.4zM11.5.8l-1.4.1L8.9.9 7.6 1 6.1 1.4 4.9 2 3.8 2.9 3 4.2 2.5 5.5 2.3 7 2.3 8.3 2.2 9.5v1.3L2 12.1 2 13.4l-.1 1.3V17L2 15.9l.1-1.4.2-1.2-.1 1.3V16l-.1 1.2L2 18.6l.2 1.3.2 1.4.5 1.3.9 1.3L5 24.5l1.5.2 1.1.2.7.5.5 1.1.5 1.2.8 1.2.8 1.1.9 1.1 1.2.8 1.3.6 1.8-.2.5-1.7-.1-1.4L16.4 28l-.2-1.3-.1-1.1.3-.8 1.2-.1 1.6.3 1.3.4.8.2v-.1L20.5 25l-1.5-.5-1.1-.3h-1.1l-.8.5-.3 1.1.1 1.3.2 1.3.2 1.4 0 1.4L15 32l-1.4-.4L12.4 31l-1-.9L10.7 29 9.9 28l-.5-1.1-.5-1.2-.8-1.1L6.8 24H5.5l-1-.4-.8-.8-.5-1.1L3 20.5l-.2-1.3-.1-1.3L3 16.5v-1.4L3 13.9l.1-1.3.1-1.3V9.9l.1-1.3.1-1.3 0-1.3.4-1.2.5-1.1.9-.8 1.1-.6 1.1-.4L9 1.7l.9-.2 1.3-.1h1.3l1.3.2L15.1 2l.8.2L14.7 2l-1.3-.2h-1.5l1.4.2 1.3.2 1.2.2L17 2.7 18.3 3l1.3.4 1.3.4L22 4.2l1.4.3 1.3.2L26 4.8h1.3l1.3-.1 1.3.1 1.4-.1 1.4-.1 1.3-.1 1.4-.1h1.2 1.4 1.4l1.3-.2 1.3.1L43 4.3l1.1.1.7.5.6.9.5 1.6.2.5.3 1.3.2 1.3.2 1.2.1 1.4-.1 1.1-.2 1.4-.1 1.1-.2 1.2-.3 1.4-.2 1.2-.3 1.3 0 0-.5 1.8-1.4 1-1.9.2-1.9-.2L38.1 24l-1.7-.4-1.3-.2h-1.1l-.5.1v.1l.5.2.6.1.8.3.8.2.8.3 1 .4 1.1.4 1.3.3 1.3.2 1.5-.1 1.4-.5 1.5-1.1.5-1.6.3-1.4.3-1.6.3-1.4.3-1.6L48 15l.2-1.5v-1.6L48 10.3l-.2-1.5-.4-1.2-.3-1.3-.5-1.4-.9-1.1L44.2 3l-1.4-.1L41.6 3 40.3 3 39 3.1h-1.2-1.3-1.4l-1.3.1-1.3.1-1.4.1-1.3.2-1.3-.1-1.3 0H26l-.8.1-.8-.1L23 3.3 21.9 3l-1.3-.3-1.3-.4-1.2-.4-1.3-.4-1.3-.2-1.3-.2-1.4-.2L11.5.8z"></path>
  <path fill="#4D708E" d="M14.8 9.2l-1.5.7-.5 1.7 1 1.7-.1-.8-.3-1.4.5-1.1 1.1-.3 1.1.4L17 11l.5 1.1-.2.2-.2 1.1-.2 1.2-.5.5-.8.2-.8-.5-.2-.2-1.1-1.2-.3.8.7 1.4 1.6 1 1.7-.2 1.1-1.4.1-1.4v-1.3l-.5-1.4-1.1-1.2-.9-.3L14.8 9.2zM25.1 9.9L24.5 10l-1.6.1-1.2 1.1-.3 1.6.5.3.2-1.4.8-1 1.1-.2 1.1.4.8.8L25.8 12l-.2 1.2-.5 1-.8.8-.8.3h-.8l-.5-.5-.8-.5-.1 1.2 1.7 1.1 1.6-.4 1.2-.9.8-1.6.1-1.2-.4-1.6L25.1 9.9zM33.1 10.8l1.2.2 1.1.6.8.9v.6L36 13.8l-.5 1-.8.5-1 .2-.9-.1-.5-.8-.6-1.1-.1-.1 0 0-.1-.9.5-1.3L33.1 10.8zM33.9 10.2l-1.6.1-1.1 1.4L31.1 13l0 0L31 13 30.9 14l.5 1.4 1.5 1.3 1.6.1 1.4-.5.8-1.2.4-1.6-.5-1.5-1-1.1-1.2-.5L33.9 10.2z"></path>
</svg>
