<svg width="17" height="16" viewBox="0 0 17 16" fill="none" xmlns="http://www.w3.org/2000/svg">
<rect x="0.75" width="16" height="16" rx="8" fill="#047CDD"/>
<path d="M10.4167 4.66667C10.2333 4.66667 10.0833 4.81667 10.0833 5.00001V5.33334H7.41667V5.00001C7.41667 4.81667 7.26667 4.66667 7.08333 4.66667C6.9 4.66667 6.75 4.81667 6.75 5.00001V5.33334H6.41667C6.04667 5.33334 5.75333 5.63334 5.75333 6.00001L5.75 10.6667C5.75 11.0333 6.04667 11.3333 6.41667 11.3333H11.0833C11.45 11.3333 11.75 11.0333 11.75 10.6667V6.00001C11.75 5.63334 11.45 5.33334 11.0833 5.33334H10.75V5.00001C10.75 4.81667 10.6 4.66667 10.4167 4.66667ZM11.0833 10.6667H6.41667V7.33334H11.0833V10.6667ZM8.41667 8.33334C8.41667 8.15001 8.56667 8.00001 8.75 8.00001C8.93333 8.00001 9.08333 8.15001 9.08333 8.33334C9.08333 8.51667 8.93333 8.66667 8.75 8.66667C8.56667 8.66667 8.41667 8.51667 8.41667 8.33334ZM7.08333 8.33334C7.08333 8.15001 7.23333 8.00001 7.41667 8.00001C7.6 8.00001 7.75 8.15001 7.75 8.33334C7.75 8.51667 7.6 8.66667 7.41667 8.66667C7.23333 8.66667 7.08333 8.51667 7.08333 8.33334ZM9.75 8.33334C9.75 8.15001 9.9 8.00001 10.0833 8.00001C10.2667 8.00001 10.4167 8.15001 10.4167 8.33334C10.4167 8.51667 10.2667 8.66667 10.0833 8.66667C9.9 8.66667 9.75 8.51667 9.75 8.33334ZM8.41667 9.66667C8.41667 9.48334 8.56667 9.33334 8.75 9.33334C8.93333 9.33334 9.08333 9.48334 9.08333 9.66667C9.08333 9.85001 8.93333 10 8.75 10C8.56667 10 8.41667 9.85001 8.41667 9.66667ZM7.08333 9.66667C7.08333 9.48334 7.23333 9.33334 7.41667 9.33334C7.6 9.33334 7.75 9.48334 7.75 9.66667C7.75 9.85001 7.6 10 7.41667 10C7.23333 10 7.08333 9.85001 7.08333 9.66667ZM9.75 9.66667C9.75 9.48334 9.9 9.33334 10.0833 9.33334C10.2667 9.33334 10.4167 9.48334 10.4167 9.66667C10.4167 9.85001 10.2667 10 10.0833 10C9.9 10 9.75 9.85001 9.75 9.66667Z" fill="white"/>
</svg>
