<svg width="17" height="16" viewBox="0 0 17 16" fill="none" xmlns="http://www.w3.org/2000/svg">
<rect x="0.75" width="16" height="16" rx="8" fill="#047CDD"/>
<g clip-path="url(#clip0_1_6168)">
<path d="M11.25 7.66666V5.66666C11.25 5.29999 10.95 4.99999 10.5833 4.99999H10.25V4.66666C10.25 4.48333 10.1 4.33333 9.91667 4.33333C9.73333 4.33333 9.58333 4.48333 9.58333 4.66666V4.99999H6.91667V4.66666C6.91667 4.48333 6.76667 4.33333 6.58333 4.33333C6.4 4.33333 6.25 4.48333 6.25 4.66666V4.99999H5.91667C5.55 4.99999 5.25 5.29999 5.25 5.66666V10.3333C5.25 10.7 5.55 11 5.91667 11H8.25V10.3333H5.91667V6.99999H10.5833V7.66666H11.25ZM9.29333 10.3333C9.11 10.3333 8.99 10.52 9.06667 10.6867C9.32667 11.2633 9.90667 11.6667 10.5833 11.6667C11.5033 11.6667 12.25 10.92 12.25 9.99999C12.25 9.07999 11.5033 8.33333 10.5833 8.33333C10.13 8.33333 9.71667 8.51666 9.41667 8.80999V8.58333C9.41667 8.44666 9.30333 8.33333 9.16667 8.33333C9.03 8.33333 8.91667 8.44666 8.91667 8.58333V9.33333C8.91667 9.51666 9.06667 9.66666 9.25 9.66666H10C10.1367 9.66666 10.25 9.55333 10.25 9.41666C10.25 9.27999 10.1367 9.16666 10 9.16666H9.76667C9.97667 8.95999 10.2667 8.83333 10.5833 8.83333C11.2267 8.83333 11.75 9.35666 11.75 9.99999C11.75 10.6433 11.2267 11.1667 10.5833 11.1667C10.11 11.1667 9.70333 10.8833 9.52 10.48C9.48 10.39 9.39 10.3333 9.29333 10.3333Z" fill="white"/>
</g>
<defs>
<clipPath id="clip0_1_6168">
<rect width="8" height="8" fill="white" transform="translate(4.75 4)"/>
</clipPath>
</defs>
</svg>
