<svg xmlns="http://www.w3.org/2000/svg" xml:space="preserve" style="enable-background:new 0 0 47.5 47.5" viewBox="0 0 47.5 47.5" id="car">
  <defs>
    <clipPath id="a">
      <path d="M0 38h38V0H0v38Z"></path>
    </clipPath>
  </defs>
  <g clip-path="url(#a)" transform="matrix(1.25 0 0 -1.25 0 47.5)">
    <path d="M0 0h20s3 0 3 4c0 2 0 6-1 7s-8 7-11 7H5c-3 0-10-7-10-7l-4-1s-3-1-3-3V4s-1-.338-1-1.957C-13 0-11 0-11 0H0Z" style="fill:#dd2e44;fill-opacity:1;fill-rule:nonzero;stroke:none" transform="translate(14 8)"></path>
    <path d="M0 0h-2c-2 0-8-6-8-6s4.997.263 10 .519V0Z" style="fill:#bbddf5;fill-opacity:1;fill-rule:nonzero;stroke:none" transform="translate(21 24)"></path>
    <path d="M0 0c-1 1-5 3-7 3h-1v-5.379C-3.989-2.175-.418-2 0-2c1 0 1 1 0 2" style="fill:#bbddf5;fill-opacity:1;fill-rule:nonzero;stroke:none" transform="translate(31 21)"></path>
    <path d="M0 0a4 4 0 1 0-8 0 4 4 0 0 0 8 0" style="fill:#292f33;fill-opacity:1;fill-rule:nonzero;stroke:none" transform="translate(15 9)"></path>
    <path d="M0 0a2 2 0 1 0-4.001.001A2 2 0 0 0 0 0" style="fill:#ccd6dd;fill-opacity:1;fill-rule:nonzero;stroke:none" transform="translate(13 9)"></path>
    <path d="M0 0a4 4 0 1 0-8 0 4 4 0 0 0 8 0" style="fill:#292f33;fill-opacity:1;fill-rule:nonzero;stroke:none" transform="translate(32 9)"></path>
    <path d="M0 0a2 2 0 1 0-4.001.001A2 2 0 0 0 0 0" style="fill:#ccd6dd;fill-opacity:1;fill-rule:nonzero;stroke:none" transform="translate(30 9)"></path>
  </g>
</svg>
