<svg width="24" height="24" viewBox="0 0 24 24" fill="none" xmlns="http://www.w3.org/2000/svg">
<g clip-path="url(#clip0_1_6192)">
<path d="M9.40323 23.592C8.22723 23.592 7.27203 22.6368 7.27203 21.4608V2.58719C7.27203 1.41119 8.22723 0.455994 9.40323 0.455994H21.4224C22.5984 0.455994 23.5536 1.41119 23.5536 2.58719V21.456C23.5536 22.632 22.5984 23.5872 21.4224 23.5872H9.40323V23.592Z" fill="#E8ECF5"/>
<path d="M21.4224 0.873598C22.3632 0.873598 23.1264 1.6368 23.1264 2.5776V21.456C23.1264 22.3968 22.3632 23.16 21.4224 23.16H9.40322C8.46242 23.16 7.69922 22.3968 7.69922 21.456V2.5824C7.69922 1.6416 8.46242 0.878403 9.40322 0.878403H21.4224M21.4224 0.0191956H9.40322C7.98722 0.0191956 6.84003 1.1664 6.84003 2.5824V21.456C6.84003 22.872 7.98722 24.0192 9.40322 24.0192H21.4224C22.8384 24.0192 23.9856 22.872 23.9856 21.456V2.5824C23.9856 1.1664 22.8384 0.0191956 21.4224 0.0191956Z" fill="#333F47"/>
<path d="M15.672 3.504H9.78724C9.55204 3.504 9.36005 3.312 9.36005 3.0768C9.36005 2.8416 9.55204 2.6496 9.78724 2.6496H15.672C15.9072 2.6496 16.0992 2.8416 16.0992 3.0768C16.0992 3.312 15.9072 3.504 15.672 3.504Z" fill="#333F47"/>
<path d="M10.056 7.01758C9.90722 7.01758 9.78241 6.89759 9.78241 6.74399V5.05918C9.78241 4.91038 9.90242 4.78558 10.056 4.78558H20.7696C20.9184 4.78558 21.0432 4.90558 21.0432 5.05918V6.74399C21.0432 6.89279 20.9232 7.01758 20.7696 7.01758H10.056Z" fill="#7E93A8"/>
<path d="M20.616 5.21759V6.5904H10.2144V5.21759H20.616ZM20.7744 4.36319H10.0609C9.67205 4.36319 9.36005 4.67519 9.36005 5.06399V6.7488C9.36005 7.1376 9.67205 7.44959 10.0609 7.44959H20.7744C21.1632 7.44959 21.4752 7.1376 21.4752 6.7488V5.06399C21.4704 4.67519 21.1584 4.36319 20.7744 4.36319Z" fill="#333F47"/>
<path d="M15.672 9.1632H9.78724C9.55204 9.1632 9.36005 8.9712 9.36005 8.736C9.36005 8.5008 9.55204 8.30881 9.78724 8.30881H15.672C15.9072 8.30881 16.0992 8.5008 16.0992 8.736C16.0992 8.9712 15.9072 9.1632 15.672 9.1632Z" fill="#333F47"/>
<path d="M10.056 12.6768C9.90722 12.6768 9.78241 12.5568 9.78241 12.4032V10.7184C9.78241 10.5696 9.90242 10.4448 10.056 10.4448H20.7696C20.9184 10.4448 21.0432 10.5648 21.0432 10.7184V12.4032C21.0432 12.552 20.9232 12.6768 20.7696 12.6768H10.056Z" fill="#7E93A8"/>
<path d="M20.616 10.8768V12.2496H10.2144V10.8768H20.616ZM20.7744 10.0176H10.0609C9.67205 10.0176 9.36005 10.3296 9.36005 10.7184V12.4032C9.36005 12.792 9.67205 13.104 10.0609 13.104H20.7744C21.1632 13.104 21.4752 12.792 21.4752 12.4032V10.7184C21.4704 10.3344 21.1584 10.0176 20.7744 10.0176Z" fill="#333F47"/>
<path d="M21.1728 21.7344H15.8304C15.6624 21.7344 15.5328 21.6 15.5328 21.4368V18.9504C15.5328 18.7824 15.6672 18.6528 15.8304 18.6528H21.1728C21.3408 18.6528 21.4704 18.7872 21.4704 18.9504V21.4368C21.4704 21.6 21.336 21.7344 21.1728 21.7344Z" fill="#08A94C"/>
<path d="M21.1152 22.1616H15.888C15.456 22.1616 15.1008 21.8112 15.1008 21.3744V19.0032C15.1008 18.5712 15.4512 18.216 15.888 18.216H21.1152C21.5472 18.216 21.9024 18.5664 21.9024 19.0032V21.3744C21.9024 21.8112 21.5472 22.1616 21.1152 22.1616ZM15.96 21.3024H21.048V19.0752H15.96V21.3024Z" fill="#333F47"/>
<path d="M10.119 22.0847C12.1922 20.0116 12.1922 16.6503 10.119 14.5771C8.04577 12.5039 4.68447 12.5039 2.61128 14.577C0.538082 16.6502 0.538074 20.0116 2.61127 22.0847C4.68446 24.1579 8.04579 24.1579 10.119 22.0847Z" fill="#08A94C"/>
<path d="M6.36961 13.3824C9.09601 13.3824 11.3184 15.6 11.3184 18.3312C11.3184 21.0576 9.10081 23.28 6.36961 23.28C3.64321 23.28 1.42081 21.0624 1.42081 18.3312C1.42081 15.6048 3.63841 13.3824 6.36961 13.3824ZM6.36961 12.6624C3.24001 12.6624 0.700806 15.2016 0.700806 18.3312C0.700806 21.4608 3.24001 24 6.36961 24C9.49921 24 12.0384 21.4608 12.0384 18.3312C12.0336 15.2016 9.49921 12.6624 6.36961 12.6624Z" fill="#333F47"/>
<path d="M7.977 22.8308C10.1078 21.9481 11.1197 19.5052 10.2371 17.3744C9.35442 15.2436 6.91152 14.2317 4.78069 15.1144C2.64986 15.997 1.638 18.4399 2.52064 20.5707C3.40328 22.7016 5.84617 23.7134 7.977 22.8308Z" fill="#333F47"/>
<path d="M6.36962 15.1584C8.47202 15.1584 10.1856 16.8672 10.1856 18.9744C10.1856 21.0768 8.47682 22.7904 6.36962 22.7904C4.26722 22.7904 2.55362 21.0816 2.55362 18.9744C2.55362 16.872 4.26242 15.1584 6.36962 15.1584ZM6.36962 14.4384C3.86402 14.4384 1.83362 16.4688 1.83362 18.9744C1.83362 21.48 3.86402 23.5104 6.36962 23.5104C8.87522 23.5104 10.9056 21.48 10.9056 18.9744C10.9008 16.4688 8.87042 14.4384 6.36962 14.4384Z" fill="#333F47"/>
<path d="M3.7104 17.4528C3.6672 17.4528 3.61921 17.4384 3.58081 17.4144C3.47041 17.3424 3.43681 17.1936 3.50881 17.0832C4.14721 16.0992 5.232 15.5088 6.4032 15.5088C6.5376 15.5088 6.6432 15.6144 6.6432 15.7488C6.6432 15.8832 6.5376 15.9888 6.4032 15.9888C5.3952 15.9888 4.4592 16.4928 3.9072 17.3424C3.864 17.4144 3.7872 17.4528 3.7104 17.4528Z" fill="#D2DFE8"/>
<path d="M3.19203 19.2C3.05763 19.2 2.95203 19.0944 2.95203 18.96C2.95203 18.528 3.03362 18.1008 3.18722 17.7024C3.23522 17.5776 3.37442 17.52 3.49922 17.568C3.62402 17.616 3.68164 17.7552 3.63364 17.88C3.49924 18.2256 3.43203 18.5904 3.43203 18.96C3.43203 19.0944 3.32643 19.2 3.19203 19.2Z" fill="#D2DFE8"/>
<path d="M3.07681 23.6592C2.68801 23.6592 2.36639 23.3424 2.36639 22.9488C2.36639 22.5552 2.68321 22.2384 3.07681 22.2384H9.70561C10.0944 22.2384 10.416 22.5552 10.416 22.9488C10.416 23.3424 10.0992 23.6592 9.70561 23.6592H3.07681Z" fill="#08A94C"/>
<path d="M9.70558 22.6032C9.89758 22.6032 10.0512 22.7616 10.0512 22.9488C10.0512 23.136 9.89278 23.2944 9.70558 23.2944H3.07678C2.88478 23.2944 2.73117 23.136 2.73117 22.9488C2.73117 22.7616 2.88958 22.6032 3.07678 22.6032H9.70558ZM9.70558 21.8832H3.07678C2.48638 21.8832 2.01117 22.3632 2.01117 22.9488C2.01117 23.5392 2.49118 24.0144 3.07678 24.0144H9.70558C10.296 24.0144 10.7712 23.5344 10.7712 22.9488C10.7712 22.3632 10.296 21.8832 9.70558 21.8832Z" fill="#333F47"/>
<path d="M0.916837 19.6128C0.590437 19.5216 0.345642 19.2192 0.345642 18.864V17.832C0.345642 17.4768 0.585637 17.1744 0.916837 17.0832V19.6128Z" fill="#333F47"/>
<path d="M1.27683 16.6896H1.12803C0.499227 16.6896 -0.00958252 17.1984 -0.00958252 17.8272V18.8592C-0.00958252 19.488 0.499227 19.9968 1.12803 19.9968H1.27683V16.6896Z" fill="#333F47"/>
<path d="M11.6832 17.0784C12.0096 17.1696 12.2544 17.472 12.2544 17.8272V18.8592C12.2544 19.2144 12.0144 19.5168 11.6832 19.608V17.0784Z" fill="#333F47"/>
<path d="M11.472 16.6896H11.3232V19.9968H11.472C12.1008 19.9968 12.6096 19.488 12.6096 18.8592V17.8272C12.6096 17.2032 12.1008 16.6896 11.472 16.6896Z" fill="#333F47"/>
</g>
<defs>
<clipPath id="clip0_1_6192">
<rect width="24" height="24" fill="white"/>
</clipPath>
</defs>
</svg>
