<svg xmlns="http://www.w3.org/2000/svg" fill-rule="evenodd" stroke-linejoin="round" stroke-miterlimit="2" clip-rule="evenodd" viewBox="0 0 64 64" id="cat-box">
  <g transform="translate(-314 -210)">
    <path fill="#5490f2" d="M363.007,246.378C358.763,245.82 328.513,245 328,245C327.448,245 327,245.448 327,246L327,271C327,272.657 328.343,274 330,274L362,274C363.657,274 365,272.657 365,271C365,265.844 365,246.5 365,246.5C365,245.948 364.552,245.5 364,245.5C363.489,245.5 363.067,245.884 363.007,246.378Z"></path>
    <path fill="#ce9823" d="M74,154C74.552,154 75,153.552 75,153L75,149.2C75,144.409 72.238,140.263 68.22,138.267C67.89,138.103 67.497,138.134 67.196,138.347C65.728,139.388 63.935,140 62,140C60.065,140 58.272,139.388 56.804,138.347C56.503,138.134 56.11,138.103 55.78,138.267C51.762,140.263 49,144.409 49,149.2C49,149.2 49,153 49,153C49,153.552 49.448,154 50,154C50.53,154 51.039,154.211 51.414,154.586C51.515,154.687 51.605,154.798 51.681,154.916C51.951,155.335 52.488,155.491 52.941,155.283L71.059,155.282C71.511,155.491 72.049,155.335 72.318,154.916C72.395,154.797 72.484,154.686 72.585,154.585C72.96,154.211 73.468,154 73.998,154L74,154Z" transform="translate(284 90)"></path>
    <path fill="#ce9823" d="M56.855 43.617C57.171 43.396 57.332 43.013 57.269 42.632 57.205 42.251 56.928 41.942 56.557 41.835L50.275 40.039C49.926 39.939 49.55 40.036 49.293 40.293 49.036 40.55 48.939 40.926 49.039 41.275L51.276 49.099C51.402 49.539 51.81 49.838 52.268 49.824 52.725 49.81 53.115 49.488 53.214 49.041 53.71 46.808 55.038 44.886 56.855 43.617zM70.786 49.041C70.885 49.488 71.275 49.81 71.732 49.824 72.19 49.837 72.598 49.539 72.724 49.099L74.961 41.275C75.061 40.926 74.964 40.55 74.707 40.293 74.45 40.036 74.074 39.939 73.725 40.039L67.443 41.835C67.072 41.942 66.795 42.251 66.731 42.632 66.668 43.013 66.829 43.396 67.145 43.617 68.961 44.886 70.289 46.808 70.786 49.041z" transform="translate(284 170)"></path>
    <circle cx="62" cy="45" r="5.5" fill="#f0b638" transform="matrix(2 0 0 2 222 131)"></circle>
    <circle cx="62.5" cy="45.5" r="1.5" fill="#9c6f0f" transform="translate(302.333 186.667)scale(.66667)"></circle>
    <circle cx="62.5" cy="45.5" r="1.5" fill="#9c6f0f" transform="translate(306.333 186.667)scale(.66667)"></circle>
    <path fill="#9c6f0f" d="M64.53,51.951C65,51.423 65.085,50.708 64.75,50.107C64.414,49.506 63.717,49.125 62.953,49.125C62.306,49.125 61.593,49.125 60.953,49.125C60.202,49.125 59.515,49.493 59.173,50.077C58.831,50.662 58.892,51.365 59.33,51.898L61.071,54.011C61.259,54.24 61.56,54.375 61.882,54.375C61.882,54.375 62.671,54.038 62.671,54.038L64.53,51.951Z" transform="matrix(1 0 0 1.14286 284.118 162.857)"></path>
    <path fill="#9c6f0f" d="M60.75,53.5C60.75,54.19 60.19,54.75 59.5,54.75C58.81,54.75 58.25,54.19 58.25,53.5C58.25,52.81 57.69,52.25 57,52.25C56.31,52.25 55.75,52.81 55.75,53.5C55.75,55.57 57.43,57.25 59.5,57.25C61.57,57.25 63.25,55.57 63.25,53.5C63.25,52.81 62.69,52.25 62,52.25C61.31,52.25 60.75,52.81 60.75,53.5Z" transform="matrix(.8 0 0 .8 296.4 181.2)"></path>
    <path fill="#9c6f0f" d="M60.752,53.436L60.748,53.564C60.715,54.224 60.168,54.75 59.5,54.75C58.832,54.75 58.285,54.224 58.252,53.564L58.248,53.436C58.215,52.776 57.668,52.25 57,52.25C56.31,52.25 55.75,52.81 55.75,53.5C55.75,55.57 57.43,57.25 59.5,57.25C61.57,57.25 63.25,55.57 63.25,53.5C63.25,52.81 62.69,52.25 62,52.25C61.332,52.25 60.785,52.776 60.752,53.436Z" transform="matrix(.8 0 0 .8 300.4 181.2)"></path>
    <path fill="#ce9823" d="M53.667,52L49,52C48.356,52 47.833,52.448 47.833,53C47.833,53.552 48.356,54 49,54L53.667,54C54.311,54 54.833,53.552 54.833,53C54.833,52.448 54.311,52 53.667,52Z" transform="matrix(.85714 0 0 1 291 168)"></path>
    <path fill="#ce9823" d="M52.5,52L47.833,52C47.189,52 46.667,52.448 46.667,53C46.667,53.552 47.189,54 47.833,54L52.5,54C53.144,54 53.667,53.552 53.667,53C53.667,52.448 53.144,52 52.5,52Z" transform="matrix(.85714 0 0 1 314 168)"></path>
    <path fill="#ce9823" d="M53.5,52L49,52C48.448,52 48,52.448 48,53C48,53.552 48.448,54 49,54L53.5,54C54.052,54 54.5,53.552 54.5,53C54.5,52.448 54.052,52 53.5,52Z" transform="translate(284 172)"></path>
    <path fill="#ce9823" d="M52.5,52L48,52C47.448,52 47,52.448 47,53C47,53.552 47.448,54 48,54L52.5,54C53.052,54 53.5,53.552 53.5,53C53.5,52.448 53.052,52 52.5,52Z" transform="translate(306.5 172)"></path>
    <path fill="#9c6f0f" d="M48,77L46,77C45.448,77 45,76.552 45,76C45,76 45,70.667 45,70.667C45,70.018 44.789,69.386 44.4,68.867C43.826,68.101 42.774,66.699 42.2,65.933C42.07,65.76 42,65.55 42,65.333L42,61C42,60.448 41.552,60 41,60C40.448,60 40,60.448 40,61L40,65.333C40,65.982 40.211,66.614 40.6,67.133C41.174,67.899 42.226,69.301 42.8,70.067C42.93,70.24 43,70.45 43,70.667L43,76C43,77.657 44.343,79 46,79L48,79C48.552,79 49,78.552 49,78C49,77.448 48.552,77 48,77Z" transform="translate(286 165)"></path>
    <path d="M165,156L165.303,155.928L165.29,155.936C165.127,155.991 165,156 165,156Z" transform="translate(190 90)"></path>
    <path fill="#306cd0" d="M346.919,242.394C347.052,242.085 347.02,241.73 346.835,241.45C346.65,241.169 346.336,241 346,241L328,241C327.6,241 327.238,241.238 327.081,241.606L324.081,248.606C323.948,248.915 323.98,249.27 324.165,249.55C324.35,249.831 324.664,250 325,250L343,250C343.4,250 343.762,249.762 343.919,249.394L346.919,242.394Z" transform="translate(0 3)"></path>
    <path fill="#306cd0" d="M346,241C346.336,241 346.65,241.169 346.835,241.45C347.02,241.73 347.052,242.085 346.919,242.394L343.919,249.394C343.762,249.762 343.4,250 343,250L325,250C324.664,250 324.35,249.831 324.165,249.55C323.98,249.27 323.948,248.915 324.081,248.606L327.081,241.606C327.238,241.238 327.6,241 328,241L346,241Z" transform="matrix(-1 0 0 1 692 3)"></path>
    <path fill="#f0b638" d="M353.029,72.746L353,72.75L349,72.75C349,72.75 348.333,72.694 348.333,71.991C348.333,71.935 348.333,71.637 348.333,71.25C348.333,70.454 348.614,69.691 349.114,69.129C349.614,68.566 350.293,68.25 351,68.25L351.001,68.25C351.708,68.25 352.386,68.566 352.886,69.128C353.386,69.691 353.667,70.453 353.667,71.249L353.667,71.991C353.667,72.606 353.156,72.726 353.029,72.746Z" transform="matrix(-1.5 0 0 1.33333 885.5 149)"></path>
    <path fill="#f0b638" d="M353.029,72.746L353,72.75L349,72.75C349,72.75 348.333,72.694 348.333,71.991C348.333,71.935 348.333,71.637 348.333,71.25C348.333,70.454 348.614,69.691 349.114,69.129C349.614,68.566 350.293,68.25 351,68.25L351.001,68.25C351.708,68.25 352.386,68.566 352.886,69.128C353.386,69.691 353.667,70.453 353.667,71.249L353.667,71.991C353.667,72.606 353.156,72.726 353.029,72.746Z" transform="matrix(-1.5 0 0 1.33333 859.5 149)"></path>
  </g>
</svg>
