<svg width="27" height="28" viewBox="0 0 27 28" fill="none" xmlns="http://www.w3.org/2000/svg">
<path opacity="0.5" d="M0.950012 17.0399C0.950012 12.213 0.950012 9.79891 2.45017 8.30003C3.94905 6.79987 6.36313 6.79987 11.19 6.79987H16.31C21.1369 6.79987 23.551 6.79987 25.0499 8.30003C26.55 9.79891 26.55 12.213 26.55 17.0399C26.55 21.8667 26.55 24.2808 25.0499 25.7797C23.551 27.2799 21.1369 27.2799 16.31 27.2799H11.19C6.36313 27.2799 3.94905 27.2799 2.45017 25.7797C0.950012 24.2808 0.950012 21.8667 0.950012 17.0399Z" fill="white"/>
<path d="M13.6835 0.720001C12.5328 0.720001 11.574 0.720001 10.8137 0.822401C10.0099 0.929921 9.28412 1.168 8.70172 1.7504C8.11804 2.33408 7.87996 3.05984 7.77244 3.8624C7.67004 4.624 7.67004 5.584 7.67004 6.73344V6.8H9.59004C9.59004 5.56608 9.5926 4.73664 9.6758 4.1184C9.75516 3.52832 9.89212 3.27488 10.0598 3.10848C10.2262 2.94208 10.4784 2.80512 11.0684 2.72448C11.6867 2.64256 12.5161 2.64 13.75 2.64C14.984 2.64 15.8134 2.64256 16.4316 2.72576C17.0217 2.80512 17.2752 2.94208 17.4416 3.10976C17.608 3.27616 17.7449 3.52832 17.8256 4.1184C17.9075 4.73664 17.91 5.56608 17.91 6.8H19.83V6.73344C19.83 5.584 19.83 4.624 19.7276 3.86368C19.6201 3.05984 19.382 2.33408 18.7984 1.75168C18.216 1.168 17.4902 0.929921 16.6864 0.822401C15.926 0.720001 14.966 0.720001 13.8166 0.720001H13.6835ZM11.19 18.32H6.07004C5.46716 18.32 5.16508 18.32 4.97692 18.5069C4.79004 18.695 4.79004 18.9984 4.79004 19.6V20.88C4.79004 21.4829 4.79004 21.785 4.97692 21.9731C5.16508 22.16 5.46844 22.16 6.07004 22.16H11.19C11.7929 22.16 12.095 22.16 12.2832 21.9731C12.47 21.785 12.47 21.4816 12.47 20.88V19.6C12.47 18.9971 12.47 18.695 12.2832 18.5069C12.095 18.32 11.7916 18.32 11.19 18.32Z" fill="white"/>
<path d="M5.11029 27.0203C5.67221 27.1214 6.30709 27.1828 7.03029 27.2199V22.1601H6.07029C5.59157 22.1601 5.30229 22.1601 5.11029 22.0667V27.0203ZM5.11029 18.4135V7.05994C5.67221 6.95882 6.30709 6.89738 7.03029 6.86026V18.3201H6.07029C5.59157 18.3201 5.30229 18.3201 5.11029 18.4135ZM20.4703 27.2199C21.1138 27.1929 21.755 27.1262 22.3903 27.0203V7.05994C21.755 6.95395 21.1138 6.88727 20.4703 6.86026V27.2199Z" fill="white"/>
</svg>
