<svg width="10" height="10" viewBox="0 0 10 10" fill="none" xmlns="http://www.w3.org/2000/svg">
<path d="M9.25 5.66665H5.91666V8.99998C5.91666 9.36665 5.61666 9.66665 5.25 9.66665C4.88333 9.66665 4.58333 9.36665 4.58333 8.99998V5.66665H1.24999C0.883328 5.66665 0.583328 5.36665 0.583328 4.99998C0.583328 4.63331 0.883328 4.33331 1.24999 4.33331H4.58333V0.99998C4.58333 0.633313 4.88333 0.333313 5.25 0.333313C5.61666 0.333313 5.91666 0.633313 5.91666 0.99998V4.33331H9.25C9.61666 4.33331 9.91666 4.63331 9.91666 4.99998C9.91666 5.36665 9.61666 5.66665 9.25 5.66665Z" fill="white"/>
</svg>
