<svg width="27" height="28" viewBox="0 0 27 28" fill="none" xmlns="http://www.w3.org/2000/svg">
<path d="M6.78002 0.666656C7.33735 0.666656 7.78802 1.07999 7.78802 1.58932V3.45332C8.68135 3.43732 9.68402 3.43732 10.812 3.43732H16.188C17.316 3.43732 18.3174 3.43732 19.212 3.45332V1.58932C19.212 1.07999 19.6627 0.666656 20.22 0.666656C20.7774 0.666656 21.228 1.07999 21.228 1.58932V3.53332C23.1614 3.67466 24.432 4.02399 25.3654 4.87732C26.2987 5.73199 26.6787 6.89466 26.8334 8.66666V9.99999H0.166687V8.66666C0.321354 6.89466 0.701354 5.73332 1.63469 4.87732C2.56802 4.02399 3.83735 3.67466 5.77202 3.53332V1.58932C5.77202 1.07999 6.22402 0.666656 6.78002 0.666656Z" fill="#08A94C"/>
<path opacity="0.5" d="M26.8334 16.6667V14C26.8334 12.8813 26.816 10.8867 26.7987 10H0.174696C0.157363 10.8867 0.174696 12.8813 0.174696 14V16.6667C0.174696 21.6947 0.174696 24.2093 1.7347 25.7707C3.2987 27.3333 5.81203 27.3333 10.8387 27.3333H16.172C21.1987 27.3333 23.7107 27.3333 25.2734 25.7707C26.8334 24.2093 26.8334 21.6947 26.8334 16.6667Z" fill="#08A94C"/>
<path fill-rule="evenodd" clip-rule="evenodd" d="M18.8334 15.6667C19.0986 15.6667 19.3529 15.772 19.5405 15.9596C19.728 16.1471 19.8334 16.4014 19.8334 16.6667V18.3333H21.5C21.7652 18.3333 22.0196 18.4387 22.2071 18.6262C22.3947 18.8138 22.5 19.0681 22.5 19.3333C22.5 19.5985 22.3947 19.8529 22.2071 20.0404C22.0196 20.228 21.7652 20.3333 21.5 20.3333H19.8334V22C19.8334 22.2652 19.728 22.5196 19.5405 22.7071C19.3529 22.8946 19.0986 23 18.8334 23C18.5681 23 18.3138 22.8946 18.1262 22.7071C17.9387 22.5196 17.8334 22.2652 17.8334 22V20.3333H16.1667C15.9015 20.3333 15.6471 20.228 15.4596 20.0404C15.272 19.8529 15.1667 19.5985 15.1667 19.3333C15.1667 19.0681 15.272 18.8138 15.4596 18.6262C15.6471 18.4387 15.9015 18.3333 16.1667 18.3333H17.8334V16.6667C17.8334 16.4014 17.9387 16.1471 18.1262 15.9596C18.3138 15.772 18.5681 15.6667 18.8334 15.6667Z" fill="#08A94C"/>
</svg>
