<svg xmlns="http://www.w3.org/2000/svg" viewBox="0 0 64 64" id="plane">
  <path fill="#f7f7f7" d="M26,48H6.068A4.068,4.068,0,0,1,2,43.932H2a4.067,4.067,0,0,1,2.782-3.859L8,39l2.243-2.243A6,6,0,0,1,14.485,35H59.413A2.587,2.587,0,0,1,62,37.587h0a2.589,2.589,0,0,1-1.188,2.177l-1.856,1.192L55.3,43.3l-2.857,1.837A18,18,0,0,1,42.713,48H26Z"></path>
  <polygon fill="#cacbcd" points="20 44 30 44 45 54 35 54 20 44"></polygon>
  <polygon fill="#cacbcd" points="59 35 59 29 55.001 29 51 34.999 59 35"></polygon>
  <polygon fill="#cacbcd" points="23 35 35 28 42 28 33 35 23 35"></polygon>
  <rect width="2" height="2" x="22" y="38" fill="#6cbfeb"></rect>
  <rect width="2" height="2" x="26" y="38" fill="#6cbfeb"></rect>
  <rect width="2" height="2" x="30" y="38" fill="#6cbfeb"></rect>
  <rect width="2" height="2" x="34" y="38" fill="#6cbfeb"></rect>
  <rect width="2" height="2" x="38" y="38" fill="#6cbfeb"></rect>
  <rect width="2" height="2" x="42" y="38" fill="#6cbfeb"></rect>
  <rect width="2" height="2" x="46" y="38" fill="#6cbfeb"></rect>
  <polygon fill="#cacbcd" points="62 44 58 40 52 40 56 44 62 44"></polygon>
  <path fill="#b5deeb" d="M20.727,18.455a3.242,3.242,0,0,0-1.037.183A5.077,5.077,0,0,0,15,15a5.077,5.077,0,0,0-4.69,3.638,3.268,3.268,0,1,0,1.478,5.16,4.893,4.893,0,0,0,6.424,0,3.266,3.266,0,1,0,2.515-5.343Z"></path>
  <path fill="#bee4f4" d="M55,14a3.979,3.979,0,0,0-1.268.224,6,6,0,0,0-11.464,0,3.995,3.995,0,1,0,1.806,6.307,5.981,5.981,0,0,0,7.852,0A3.992,3.992,0,1,0,55,14Z"></path>
  <path fill="#6cbfeb" d="M17,37V35H14.485a6,6,0,0,0-4.242,1.757L8,39h7A2,2,0,0,0,17,37Z"></path>
  <path d="M6.068,45A4.064,4.064,0,0,1,2.3,42.439,4.042,4.042,0,0,0,6.068,48H26l-4.5-3Z" opacity=".05"></path>
  <g opacity=".05">
    <path d="M61.505 36.076a2.578 2.578 0 01-.693.688l-1.856 1.192L55.778 40H58l.956.956 1.856-1.192A2.589 2.589 0 0062 37.587h0A2.568 2.568 0 0061.505 36.076zM52.447 42.141A18 18 0 0142.713 45H31.5L36 48h6.713a18 18 0 009.734-2.859L55.3 43.3l-1.826-1.826z"></path>
  </g>
  <polygon points="26.429 33 23 35 33 35 35.571 33 26.429 33" opacity=".05"></polygon>
  <polygon points="52.429 33 52.273 33.091 51 34.999 59 35 59 33 52.429 33" opacity=".05"></polygon>
  <path fill="#fff" d="M55,20a3.972,3.972,0,0,1-3.074-1.469,5.981,5.981,0,0,1-7.852,0A3.97,3.97,0,0,1,37.141,17a3.979,3.979,0,0,0,6.933,3.531,5.981,5.981,0,0,0,7.852,0A3.972,3.972,0,0,0,58.859,17,3.992,3.992,0,0,1,55,20Z" opacity=".15"></path>
  <path fill="#bee4f4" d="M20.727,18.455a3.242,3.242,0,0,0-1.037.183A5.077,5.077,0,0,0,15,15a5.077,5.077,0,0,0-4.69,3.638,3.268,3.268,0,1,0,1.478,5.16,4.893,4.893,0,0,0,6.424,0,3.266,3.266,0,1,0,2.515-5.343Z"></path>
  <path fill="#fff" d="M20.727,23a3.252,3.252,0,0,1-2.515-1.2,4.893,4.893,0,0,1-6.424,0,3.244,3.244,0,0,1-5.616-1.071A3.254,3.254,0,0,0,11.788,23.8a4.893,4.893,0,0,0,6.424,0,3.249,3.249,0,0,0,5.616-3.071A3.262,3.262,0,0,1,20.727,23Z" opacity=".15"></path>
</svg>
